<?xml version="1.0" encoding="UTF-8"?>
<!DOCTYPE svg PUBLIC "-//W3C//DTD SVG 1.1//EN" "http://www.w3.org/Graphics/SVG/1.1/DTD/svg11.dtd">
<svg xmlns="http://www.w3.org/2000/svg" version="1.1" width="96px" height="96px" style="shape-rendering:geometricPrecision; text-rendering:geometricPrecision; image-rendering:optimizeQuality; fill-rule:evenodd; clip-rule:evenodd" xmlns:xlink="http://www.w3.org/1999/xlink">
<g><path style="opacity:0.957" fill="#a5a5a5" d="M 10.5,4.5 C 19.1731,4.33358 27.8397,4.50025 36.5,5C 38.286,5.78451 39.786,6.95118 41,8.5C 42.6114,17.7321 42.9447,27.0654 42,36.5C 41.2155,38.286 40.0488,39.786 38.5,41C 29.2679,42.6114 19.9346,42.9447 10.5,42C 8.71398,41.2155 7.21398,40.0488 6,38.5C 4.38865,29.2679 4.05532,19.9346 5,10.5C 6.35968,7.97739 8.19301,5.97739 10.5,4.5 Z M 15.5,10.5 C 20.8437,10.334 26.1771,10.5006 31.5,11C 32.7659,11.3095 33.9326,11.8095 35,12.5C 37.1382,20.0952 36.9715,27.5952 34.5,35C 26.9048,37.1382 19.4048,36.9715 12,34.5C 10,27.1667 10,19.8333 12,12.5C 13.3024,11.9152 14.469,11.2485 15.5,10.5 Z"/></g>
<g><path style="opacity:0.882" fill="#a6a6a6" d="M 65.5,4.5 C 86.8927,4.06096 94.3927,14.061 88,34.5C 80.2547,42.9187 71.088,44.7521 60.5,40C 52.535,33.0775 50.3684,24.5775 54,14.5C 56.8178,9.83883 60.6511,6.50549 65.5,4.5 Z M 66.5,11.5 C 79.3202,10.1527 84.8202,15.8194 83,28.5C 79.3449,35.0702 73.8449,37.2368 66.5,35C 59.9298,31.3449 57.7632,25.8449 60,18.5C 61.6941,15.6424 63.8607,13.309 66.5,11.5 Z"/></g>
<g><path style="opacity:0.957" fill="#a5a5a5" d="M 10.5,52.5 C 19.1731,52.3336 27.8397,52.5002 36.5,53C 38.286,53.7845 39.786,54.9512 41,56.5C 42.6114,65.7321 42.9447,75.0654 42,84.5C 41.2155,86.286 40.0488,87.786 38.5,89C 29.2679,90.6114 19.9346,90.9447 10.5,90C 8.71398,89.2155 7.21398,88.0488 6,86.5C 4.38865,77.2679 4.05532,67.9346 5,58.5C 6.35968,55.9774 8.19301,53.9774 10.5,52.5 Z M 15.5,58.5 C 20.8437,58.334 26.1771,58.5006 31.5,59C 32.7659,59.3095 33.9326,59.8095 35,60.5C 37.1382,68.0952 36.9715,75.5952 34.5,83C 26.9048,85.1382 19.4048,84.9715 12,82.5C 10,75.1667 10,67.8333 12,60.5C 13.3024,59.9152 14.469,59.2485 15.5,58.5 Z"/></g>
<g><path style="opacity:0.957" fill="#a5a5a5" d="M 58.5,52.5 C 67.1731,52.3336 75.8397,52.5002 84.5,53C 86.286,53.7845 87.786,54.9512 89,56.5C 90.6114,65.7321 90.9447,75.0654 90,84.5C 89.2155,86.286 88.0488,87.786 86.5,89C 77.2679,90.6114 67.9346,90.9447 58.5,90C 56.714,89.2155 55.214,88.0488 54,86.5C 52.3886,77.2679 52.0553,67.9346 53,58.5C 54.3597,55.9774 56.193,53.9774 58.5,52.5 Z M 63.5,58.5 C 68.8437,58.334 74.1771,58.5006 79.5,59C 80.7659,59.3095 81.9326,59.8095 83,60.5C 85.1382,68.0952 84.9715,75.5952 82.5,83C 74.9048,85.1382 67.4048,84.9715 60,82.5C 58,75.1667 58,67.8333 60,60.5C 61.3024,59.9152 62.469,59.2485 63.5,58.5 Z"/></g>
</svg>
