<?xml version="1.0" encoding="UTF-8"?>
<!DOCTYPE svg PUBLIC "-//W3C//DTD SVG 1.1//EN" "http://www.w3.org/Graphics/SVG/1.1/DTD/svg11.dtd">
<svg xmlns="http://www.w3.org/2000/svg" version="1.1" width="96px" height="96px" style="shape-rendering:geometricPrecision; text-rendering:geometricPrecision; image-rendering:optimizeQuality; fill-rule:evenodd; clip-rule:evenodd" xmlns:xlink="http://www.w3.org/1999/xlink">
<g><path style="opacity:0.948" fill="#a6a6a6" d="M 15.5,15.5 C 36.8359,15.3334 58.1693,15.5 79.5,16C 83.3333,17.1667 85.8333,19.6667 87,23.5C 87.6667,39.5 87.6667,55.5 87,71.5C 85.8333,75.3333 83.3333,77.8333 79.5,79C 58.1667,79.6667 36.8333,79.6667 15.5,79C 11.6667,77.8333 9.16667,75.3333 8,71.5C 7.33333,55.5 7.33333,39.5 8,23.5C 9.35318,19.6499 11.8532,16.9832 15.5,15.5 Z M 20.5,21.5 C 38.5031,21.3334 56.5031,21.5001 74.5,22C 78.3712,23.0387 80.7046,25.5387 81.5,29.5C 70.1667,35.8333 58.8333,42.1667 47.5,48.5C 36.1667,42.1667 24.8333,35.8333 13.5,29.5C 14.485,25.5228 16.8183,22.8561 20.5,21.5 Z M 13.5,38.5 C 24.5802,44.7068 35.9135,50.3734 47.5,55.5C 58.9726,50.5135 70.1393,44.8468 81,38.5C 81.9258,48.9072 81.5925,59.2405 80,69.5C 78.6811,71.4875 76.8477,72.6541 74.5,73C 55.4347,73.9617 36.4347,73.6284 17.5,72C 15.5125,70.6811 14.3459,68.8477 14,66.5C 13.5002,57.1726 13.3335,47.8393 13.5,38.5 Z"/></g>
</svg>
