<?xml version="1.0" standalone="no"?>
<!DOCTYPE svg PUBLIC "-//W3C//DTD SVG 20010904//EN"
 "http://www.w3.org/TR/2001/REC-SVG-20010904/DTD/svg10.dtd">
<svg version="1.0" xmlns="http://www.w3.org/2000/svg"
 width="500.000000pt" height="500.000000pt" viewBox="0 0 500.000000 500.000000"
 preserveAspectRatio="xMidYMid meet">

<g transform="translate(0.000000,500.000000) scale(0.100000,-0.100000)"
fill="#000000" stroke="none">
<path d="M2320 4674 c-238 -29 -310 -42 -440 -81 -349 -105 -658 -290 -920
-553 -337 -336 -545 -745 -617 -1210 -24 -160 -24 -501 0 -660 36 -232 92
-411 192 -615 248 -505 661 -888 1176 -1089 265 -103 478 -141 794 -141 372 1
629 58 940 210 431 210 764 534 993 965 104 194 183 437 218 665 26 169 26
504 0 670 -78 504 -337 973 -726 1313 -181 158 -481 334 -704 411 -118 41
-258 76 -386 96 -100 15 -445 28 -520 19z m326 -957 c60 -30 118 -92 148 -156
20 -44 21 -63 24 -393 l3 -347 347 -3 c330 -3 349 -4 393 -24 64 -30 125 -88
157 -148 24 -45 27 -62 27 -146 0 -80 -4 -102 -23 -138 -35 -66 -88 -119 -150
-149 l-57 -28 -347 -3 -347 -3 -3 -347 -3 -347 -28 -57 c-30 -62 -83 -115
-149 -150 -36 -19 -58 -23 -138 -23 -84 0 -101 3 -146 27 -60 32 -118 93 -148
157 -20 44 -21 63 -24 393 l-3 347 -347 3 -347 3 -57 28 c-62 30 -115 83 -150
149 -19 36 -23 58 -23 138 0 80 4 102 23 138 35 66 88 119 150 149 l57 28 347
3 347 3 3 347 c3 330 4 349 24 393 39 84 114 151 204 180 14 5 61 7 105 5 62
-2 91 -8 131 -29z"/>
</g>
</svg>
