<?xml version="1.0" standalone="no"?>
<!DOCTYPE svg PUBLIC "-//W3C//DTD SVG 20010904//EN"
 "http://www.w3.org/TR/2001/REC-SVG-20010904/DTD/svg10.dtd">
<svg version="1.0" xmlns="http://www.w3.org/2000/svg"
 width="220.000000pt" height="183.000000pt" viewBox="0 0 220.000000 183.000000"
 preserveAspectRatio="xMidYMid meet">

<g transform="translate(0.000000,183.000000) scale(0.100000,-0.100000)"
fill="#000000" stroke="none">
<path d="M545 1801 c-107 -20 -204 -118 -294 -299 -21 -41 -64 -97 -125 -161
-123 -128 -129 -139 -124 -260 3 -90 5 -99 37 -145 19 -27 59 -77 90 -111 31
-34 76 -98 100 -143 33 -62 65 -102 130 -165 99 -95 185 -148 397 -246 82 -38
194 -90 248 -116 72 -34 136 -55 230 -75 72 -16 162 -36 200 -45 55 -13 111
-15 270 -13 190 3 204 4 248 27 70 36 110 73 141 129 l27 50 -11 214 c-6 117
-9 261 -6 319 4 100 7 110 48 195 40 80 44 97 47 175 5 123 -8 160 -78 228
-62 59 -80 92 -80 143 0 67 -74 138 -211 202 -79 37 -157 56 -339 81 -127 17
-872 30 -945 16z m924 -61 c47 -6 87 -13 90 -15 15 -15 -27 -16 -186 -5 -418
30 -498 25 -646 -43 -76 -35 -251 -146 -243 -154 2 -3 31 13 63 35 70 47 184
106 273 139 82 32 224 40 370 23 58 -7 204 -15 325 -19 211 -6 222 -7 277 -33
127 -59 198 -122 198 -175 0 -51 25 -100 80 -157 31 -34 62 -71 69 -83 6 -12
11 -57 11 -100 0 -73 -3 -86 -42 -164 l-43 -84 0 -340 c0 -371 3 -352 -59
-418 -40 -42 -137 -84 -214 -91 -139 -14 -372 23 -665 105 -41 11 -375 164
-492 226 -185 97 -299 199 -368 330 -21 40 -49 86 -63 102 -22 26 -23 30 -7
33 13 3 9 8 -17 20 -75 32 -140 139 -140 229 0 56 7 73 59 142 45 60 72 78
141 93 44 10 48 12 23 13 -18 1 -33 4 -33 7 0 4 13 29 30 55 16 27 36 65 45
85 26 62 102 168 146 203 77 62 72 62 524 57 226 -3 448 -10 494 -16z"/>
<path d="M882 1659 c-115 -20 -301 -121 -333 -181 -8 -14 11 -3 52 31 70 60
152 102 244 126 81 22 255 30 330 16 97 -19 291 -25 418 -12 85 8 123 8 138 1
11 -6 25 -10 32 -7 7 2 2 9 -12 16 -19 10 -57 11 -195 1 -139 -11 -189 -10
-266 0 -119 16 -338 21 -408 9z"/>
<path d="M905 1600 c-44 -4 -103 -17 -132 -28 -61 -23 -148 -85 -165 -115 -10
-19 -7 -19 23 6 19 15 48 39 65 52 61 50 136 68 289 74 87 3 129 7 110 12 -37
8 -87 8 -190 -1z"/>
<path d="M1108 1528 c15 -29 28 -47 30 -40 5 16 -31 85 -46 90 -6 2 1 -20 16
-50z"/>
<path d="M1520 1575 c-8 -2 -36 -7 -62 -10 -27 -3 -48 -10 -48 -15 0 -4 16 -4
36 0 20 5 73 11 118 15 77 7 86 5 135 -19 33 -17 60 -40 73 -62 24 -40 36 -39
16 2 -7 16 -32 42 -56 59 -39 26 -53 30 -120 32 -42 1 -84 0 -92 -2z"/>
<path d="M1440 1486 c-5 -15 -10 -37 -10 -49 1 -14 7 -6 16 21 17 47 11 72 -6
28z"/>
<path d="M748 1436 c-54 -15 -114 -57 -130 -92 -9 -20 -8 -28 5 -41 15 -15 27
-16 114 -6 119 14 188 4 280 -37 36 -17 69 -30 74 -30 20 0 79 64 79 85 0 28
-55 74 -131 110 -46 21 -68 25 -149 24 -52 0 -116 -6 -142 -13z m277 -60 c62
-29 94 -61 77 -78 -9 -9 -24 -7 -64 11 -29 13 -65 26 -80 28 -23 4 -28 11 -28
34 0 37 25 38 95 5z m-300 -26 c-3 -5 -15 -10 -26 -10 -11 0 -17 5 -14 10 3 6
15 10 26 10 11 0 17 -4 14 -10z"/>
<path d="M1550 1391 c-39 -8 -76 -26 -102 -49 -10 -8 -39 -20 -65 -27 -26 -7
-48 -16 -50 -22 -2 -5 12 -18 31 -28 32 -17 35 -24 43 -79 7 -56 11 -62 51
-89 55 -37 55 -64 2 -117 -41 -41 -67 -49 -88 -28 -16 16 -37 -4 -29 -26 8
-21 55 -39 82 -32 12 3 43 26 69 51 27 25 57 45 67 45 11 0 28 5 38 11 14 10
29 7 74 -14 32 -14 57 -22 57 -17 0 4 -21 18 -47 31 -27 12 -64 36 -83 53 -19
17 -56 45 -83 61 -52 33 -81 91 -60 123 14 22 79 40 193 53 134 15 156 31 105
79 -20 19 -37 23 -97 26 -40 2 -89 -1 -108 -5z"/>
<path d="M512 1343 c-29 -6 -23 -27 9 -31 13 -2 20 0 16 4 -4 4 3 14 15 21 21
11 21 12 3 11 -11 0 -30 -3 -43 -5z"/>
<path d="M1820 1328 c0 -4 37 -8 83 -8 81 0 84 -1 137 -41 66 -48 93 -97 85
-152 -11 -76 -30 -104 -92 -137 -41 -22 -49 -29 -28 -25 83 17 123 65 130 155
7 84 -11 120 -85 171 -51 35 -61 38 -142 41 -49 3 -88 1 -88 -4z"/>
<path d="M213 1319 c-51 -15 -99 -79 -106 -142 -6 -64 6 -185 22 -215 11 -22
78 -62 103 -62 6 0 -8 13 -33 28 -69 44 -73 53 -77 163 -5 110 3 141 48 184
23 22 46 31 102 40 70 12 71 12 23 13 -27 0 -64 -4 -82 -9z"/>
<path d="M560 1290 c-13 -8 -12 -10 3 -10 9 0 17 5 17 10 0 12 -1 12 -20 0z"/>
<path d="M274 1261 c-74 -45 -114 -139 -94 -220 15 -61 44 -101 62 -83 10 10
9 22 -5 61 -22 64 -21 88 6 135 47 83 126 106 219 63 169 -78 291 -76 376 5
59 58 31 79 -38 29 -22 -16 -60 -34 -86 -40 -51 -13 -107 -1 -211 45 -72 31
-182 34 -229 5z"/>
<path d="M1994 1247 c41 -25 54 -47 61 -97 7 -48 5 -54 -21 -81 -35 -37 -24
-50 12 -14 25 25 26 31 21 89 -7 78 -13 91 -43 105 -33 14 -54 13 -30 -2z"/>
<path d="M1839 1217 c-20 -8 -51 -24 -68 -37 -27 -19 -37 -21 -57 -11 -34 15
-64 14 -64 -2 0 -25 37 -48 89 -54 50 -6 53 -5 85 31 38 41 72 46 133 21 46
-20 53 -19 53 5 0 43 -104 71 -171 47z"/>
<path d="M393 1188 c-6 -7 -14 -26 -19 -43 -7 -23 -23 -36 -62 -55 -61 -29
-68 -50 -16 -50 51 0 74 -15 74 -50 0 -18 13 -47 33 -73 17 -24 59 -81 92
-127 104 -143 273 -269 429 -319 152 -48 219 -56 476 -55 379 1 483 36 533
180 37 103 28 375 -15 457 -12 23 -25 49 -28 57 -13 28 -24 12 -41 -56 -18
-76 -38 -97 -127 -140 -160 -76 -416 -70 -722 17 -302 86 -525 179 -571 238
-20 25 -28 29 -36 19z m128 -143 c49 -25 92 -52 95 -59 3 -8 4 -32 2 -54 l-3
-41 -84 41 c-57 29 -89 51 -102 72 -20 33 -26 86 -9 86 6 0 51 -20 101 -45z
m273 -106 c166 -50 159 -46 152 -93 -4 -23 -11 -45 -15 -49 -8 -8 -126 30
-186 59 -49 24 -99 114 -64 114 7 0 57 -14 113 -31z m1104 -4 c-3 -3 -9 2 -12
12 -6 14 -5 15 5 6 7 -7 10 -15 7 -18z m-37 -77 c10 -35 10 -51 2 -59 -21 -21
-33 2 -33 64 0 70 12 68 31 -5z m-1253 -31 c17 -16 22 -30 20 -56 -2 -19 -8
-36 -14 -38 -10 -3 -68 66 -109 130 l-18 27 49 -20 c27 -12 59 -31 72 -43z
m521 18 c91 -19 103 -28 99 -74 -3 -33 -6 -36 -36 -39 -38 -4 -180 24 -197 38
-9 7 -10 22 -5 44 11 48 18 57 43 51 12 -3 55 -12 96 -20z m651 -16 c0 -52
-15 -79 -44 -79 -20 0 -24 7 -30 42 -6 37 -4 46 15 60 11 10 30 18 40 18 16 0
19 -7 19 -41z m-357 -28 c4 -4 9 -21 10 -37 l2 -29 -75 0 c-75 0 -75 0 -78 28
-6 54 2 60 71 53 34 -4 66 -11 70 -15z m230 -14 c5 -17 6 -32 0 -38 -4 -4 -41
-11 -80 -15 -71 -7 -72 -6 -84 19 -21 47 12 66 110 63 39 -1 45 -4 54 -29z
m-848 -43 c50 -20 94 -40 99 -45 12 -11 -19 -112 -39 -129 -20 -16 -39 -8
-125 53 -54 38 -74 59 -73 73 10 79 16 96 32 90 9 -2 57 -21 106 -42z m272
-90 c49 -15 94 -34 100 -42 14 -17 7 -119 -8 -137 -10 -10 -114 5 -196 30 -58
17 -65 33 -39 83 8 15 17 45 21 65 5 27 12 37 21 33 8 -3 53 -17 101 -32z
m793 -75 c-11 -24 -20 -36 -20 -27 0 21 33 93 38 80 1 -5 -6 -29 -18 -53z
m-516 15 l58 -7 -6 -56 c-8 -72 -23 -84 -98 -78 -31 3 -61 8 -67 12 -12 7 -15
103 -5 130 5 11 14 15 33 11 14 -3 52 -8 85 -12z m443 -20 c-4 -25 -2 -37 9
-41 7 -3 14 -8 14 -12 0 -9 -80 -34 -87 -28 -5 5 32 83 49 105 17 20 21 14 15
-24z m-92 -1 c-4 -10 -13 -31 -19 -48 -17 -47 -25 -55 -52 -55 -28 0 -30 14
-8 69 15 37 26 45 73 50 9 1 11 -5 6 -16z m-129 -8 c9 -24 -38 -97 -69 -108
-47 -15 -61 -3 -53 50 3 25 11 52 17 59 16 19 98 18 105 -1z"/>
<path d="M967 1091 c-4 -15 -19 -20 -88 -27 -81 -8 -82 -9 -29 -12 83 -4 134
9 138 36 4 27 -14 30 -21 3z"/>
<path d="M1043 1100 c-48 -19 -58 -95 -18 -135 13 -14 29 -25 35 -25 19 0 23
30 6 49 -9 10 -16 27 -16 39 0 17 9 24 45 33 25 6 45 17 45 24 0 24 -54 32
-97 15z"/>
<path d="M1128 1020 c-22 -13 -23 -33 -4 -49 10 -8 16 -9 21 -1 3 5 30 10 60
10 53 0 76 13 58 31 -15 15 -115 21 -135 9z"/>
<path d="M520 498 c63 -39 273 -135 362 -167 101 -35 342 -86 478 -101 52 -6
176 -11 275 -13 l180 -2 53 29 c62 35 102 69 102 89 0 8 -16 -1 -38 -22 -21
-20 -60 -47 -88 -61 -47 -24 -55 -25 -214 -23 -208 3 -313 15 -518 59 -199 42
-291 75 -468 165 -133 67 -194 91 -124 47z"/>
<path d="M630 515 c0 -9 212 -109 322 -151 134 -51 191 -62 398 -75 203 -12
322 -7 391 16 46 16 119 69 119 86 0 6 -17 -4 -37 -20 -21 -17 -60 -40 -88
-53 -47 -21 -61 -23 -215 -21 -362 6 -447 24 -732 154 -168 76 -158 72 -158
64z"/>
</g>
</svg>
