<?xml version="1.0" encoding="UTF-8"?>
<!DOCTYPE svg PUBLIC "-//W3C//DTD SVG 1.1//EN" "http://www.w3.org/Graphics/SVG/1.1/DTD/svg11.dtd">
<svg xmlns="http://www.w3.org/2000/svg" version="1.1" width="540px" height="462px" style="shape-rendering:geometricPrecision; text-rendering:geometricPrecision; image-rendering:optimizeQuality; fill-rule:evenodd; clip-rule:evenodd" xmlns:xlink="http://www.w3.org/1999/xlink">
<g><path style="opacity:0.333" fill="#6d6978" d="M 265.5,24.5 C 270.579,23.1736 275.579,23.5069 280.5,25.5C 275.518,24.9466 270.518,24.6133 265.5,24.5 Z"/></g>
<g><path style="opacity:1" fill="#f3f3f3" d="M 265.5,24.5 C 270.518,24.6133 275.518,24.9466 280.5,25.5C 287.024,26.5921 292.024,29.9255 295.5,35.5C 296.08,37.7488 297.413,39.4154 299.5,40.5C 300.441,42.0495 301.107,43.7162 301.5,45.5C 301.565,48.4282 302.232,51.0948 303.5,53.5C 303.769,57.9315 303.436,62.2648 302.5,66.5C 300.896,67.287 300.229,68.6203 300.5,70.5C 296.159,80.8393 288.493,87.1726 277.5,89.5C 276.167,99.8333 276.167,110.167 277.5,120.5C 280.902,120.342 284.236,120.676 287.5,121.5C 288.209,122.404 289.209,122.737 290.5,122.5C 291.5,122.5 292.5,122.5 293.5,122.5C 295.515,123.924 297.848,124.59 300.5,124.5C 302.965,124.767 305.299,125.434 307.5,126.5C 309.426,128.293 311.759,129.293 314.5,129.5C 320.42,130.451 324.087,133.784 325.5,139.5C 324.44,144.06 321.607,146.727 317,147.5C 312.768,145.966 308.601,144.3 304.5,142.5C 300.797,139.483 296.464,137.816 291.5,137.5C 289.05,137.702 286.717,137.369 284.5,136.5C 273.317,134.948 262.317,135.282 251.5,137.5C 221.106,144.911 199.106,162.578 185.5,190.5C 183.896,191.287 183.229,192.62 183.5,194.5C 182.499,197.172 181.499,199.838 180.5,202.5C 179.566,203.568 179.232,204.901 179.5,206.5C 178.673,211.477 178.006,216.477 177.5,221.5C 176.345,228.655 176.178,235.988 177,243.5C 177.156,246.191 177.989,248.524 179.5,250.5C 179.5,250.833 179.5,251.167 179.5,251.5C 179.232,253.099 179.566,254.432 180.5,255.5C 189.766,283.43 207.766,303.43 234.5,315.5C 235.445,317.614 236.945,319.281 239,320.5C 242.329,320.968 245.495,321.801 248.5,323C 245.113,324.027 242.113,325.527 239.5,327.5C 239.5,325.833 239.5,324.167 239.5,322.5C 238.167,322.5 236.833,322.5 235.5,322.5C 235.728,320.645 235.061,319.812 233.5,320C 232.446,321.388 232.28,322.888 233,324.5C 236.079,327.385 238.579,330.052 240.5,332.5C 237.211,331.626 233.877,330.959 230.5,330.5C 228.085,329.695 225.751,328.695 223.5,327.5C 223.027,326.094 222.027,325.427 220.5,325.5C 194.623,312.29 176.956,291.957 167.5,264.5C 167.737,263.209 167.404,262.209 166.5,261.5C 165.366,258.63 164.7,255.63 164.5,252.5C 164.656,248.236 163.989,244.236 162.5,240.5C 162.5,239.5 162.5,238.5 162.5,237.5C 151.116,236.856 140.116,237.523 129.5,239.5C 124.145,253.695 113.812,261.362 98.5,262.5C 93.6368,262.261 88.9701,261.261 84.5,259.5C 84.0269,258.094 83.0269,257.427 81.5,257.5C 74.5958,253.603 69.9291,247.936 67.5,240.5C 66.6136,233.543 66.2803,226.543 66.5,219.5C 69.6793,209.654 76.0126,202.654 85.5,198.5C 88.1522,198.59 90.4855,197.924 92.5,196.5C 96.8097,195.424 101.143,195.424 105.5,196.5C 106.78,197.931 108.447,198.598 110.5,198.5C 119.157,201.789 125.157,207.789 128.5,216.5C 128.674,218.861 129.007,221.194 129.5,223.5C 140.5,223.5 151.5,223.5 162.5,223.5C 162.998,218.848 163.331,214.181 163.5,209.5C 163.7,206.37 164.366,203.37 165.5,200.5C 166.924,198.485 167.59,196.152 167.5,193.5C 171.884,180.897 178.217,169.397 186.5,159C 179.877,151.376 172.877,144.042 165.5,137C 163.494,137.15 161.494,137.65 159.5,138.5C 153.862,139.22 148.196,139.553 142.5,139.5C 142.027,138.094 141.027,137.427 139.5,137.5C 138.596,136.791 138.263,135.791 138.5,134.5C 138.5,133.167 138.5,131.833 138.5,130.5C 138.374,128.224 139.708,126.557 142.5,125.5C 145.279,125.721 147.946,125.388 150.5,124.5C 157.859,123.477 162.859,119.477 165.5,112.5C 166.434,111.432 166.768,110.099 166.5,108.5C 166.5,107.167 166.5,105.833 166.5,104.5C 166.737,103.209 166.404,102.209 165.5,101.5C 164.752,99.6675 163.752,98.0009 162.5,96.5C 162.167,94.1667 160.833,92.8333 158.5,92.5C 148.43,87.4808 139.93,89.8141 133,99.5C 132.055,105.197 131.055,110.864 130,116.5C 126.321,119.982 122.488,120.315 118.5,117.5C 117.031,112.284 116.365,106.95 116.5,101.5C 116.586,100.504 116.252,99.6708 115.5,99C 116.381,98.2917 117.047,97.4584 117.5,96.5C 118.404,95.791 118.737,94.791 118.5,93.5C 119.906,93.0269 120.573,92.0269 120.5,90.5C 120.328,89.5084 120.662,88.8417 121.5,88.5C 122.5,88.1667 123.167,87.5 123.5,86.5C 124.5,84.8333 125.833,83.5 127.5,82.5C 128.5,82.1667 129.167,81.5 129.5,80.5C 130.833,79.5 132.167,78.5 133.5,77.5C 137.702,76.8684 141.702,75.8684 145.5,74.5C 147.833,74.5 150.167,74.5 152.5,74.5C 154.265,75.4614 156.265,75.7947 158.5,75.5C 160.403,75.7959 162.07,76.4625 163.5,77.5C 163.821,79.0481 164.821,79.7148 166.5,79.5C 166.973,80.9063 167.973,81.573 169.5,81.5C 173.99,85.3261 177.323,89.9927 179.5,95.5C 179.232,97.099 179.566,98.4324 180.5,99.5C 181.802,104.734 181.802,110.067 180.5,115.5C 179.262,117.214 178.595,119.214 178.5,121.5C 177.634,123.144 177.134,124.811 177,126.5C 183.369,133.036 189.869,139.369 196.5,145.5C 197.053,147.552 198.053,147.885 199.5,146.5C 201.027,146.573 202.027,145.906 202.5,144.5C 203.579,142.457 205.246,141.124 207.5,140.5C 209.027,140.573 210.027,139.906 210.5,138.5C 211.899,137.11 213.566,136.11 215.5,135.5C 217.027,135.573 218.027,134.906 218.5,133.5C 220.456,132.508 222.456,131.508 224.5,130.5C 227.491,130.834 229.824,129.834 231.5,127.5C 234.655,125.924 237.988,124.924 241.5,124.5C 244.152,124.59 246.485,123.924 248.5,122.5C 249.167,122.5 249.833,122.5 250.5,122.5C 251.791,122.737 252.791,122.404 253.5,121.5C 254.5,121.5 255.5,121.5 256.5,121.5C 258.415,121.784 260.081,121.451 261.5,120.5C 262.166,115.344 262.499,110.011 262.5,104.5C 262.495,98.7891 261.828,93.4558 260.5,88.5C 257.279,88.1039 254.612,86.7705 252.5,84.5C 252.027,83.0937 251.027,82.427 249.5,82.5C 244.398,78.6149 241.064,73.6149 239.5,67.5C 238.759,61.5293 238.425,55.5293 238.5,49.5C 238.394,46.9214 239.061,44.588 240.5,42.5C 241.906,42.0269 242.573,41.0269 242.5,39.5C 243.124,37.246 244.457,35.5794 246.5,34.5C 247.833,33.8333 248.833,32.8333 249.5,31.5C 250.95,29.3901 252.95,28.0568 255.5,27.5C 256.492,27.6716 257.158,27.3382 257.5,26.5C 259.913,24.9493 262.579,24.2826 265.5,24.5 Z M 273.5,39.5 C 277,40.7812 280.333,42.4478 283.5,44.5C 283.733,46.0618 284.4,47.3951 285.5,48.5C 285.932,49.7095 286.599,50.7095 287.5,51.5C 288.625,56.6895 287.958,61.6895 285.5,66.5C 283.167,68.1667 281.167,70.1667 279.5,72.5C 277.559,72.8693 275.725,73.536 274,74.5C 271.301,74.3362 268.468,74.1695 265.5,74C 261.724,72.0526 258.39,69.5526 255.5,66.5C 255.771,64.6203 255.104,63.287 253.5,62.5C 251.653,47.3507 258.32,39.6841 273.5,39.5 Z M 115.5,226.5 C 115.632,229.57 115.299,232.57 114.5,235.5C 111.726,240.611 107.726,244.278 102.5,246.5C 98.7852,246.577 95.1185,246.244 91.5,245.5C 90.7095,244.599 89.7095,243.932 88.5,243.5C 79.9048,236.514 78.4048,228.18 84,218.5C 93.9976,208.874 103.664,209.207 113,219.5C 114.136,221.743 114.97,224.076 115.5,226.5 Z"/></g>
<g><path style="opacity:0.408" fill="#474552" d="M 257.5,26.5 C 257.158,27.3382 256.492,27.6716 255.5,27.5C 256.006,25.8946 256.673,25.5613 257.5,26.5 Z"/></g>
<g><path style="opacity:0.357" fill="#514d5e" d="M 249.5,31.5 C 248.833,32.8333 247.833,33.8333 246.5,34.5C 246.5,32.5 247.5,31.5 249.5,31.5 Z"/></g>
<g><path style="opacity:0.961" fill="#afabb7" d="M 273.5,39.5 C 278.152,38.7653 281.486,40.432 283.5,44.5C 280.333,42.4478 277,40.7812 273.5,39.5 Z"/></g>
<g><path style="opacity:0.027" fill="#4d4855" d="M 295.5,35.5 C 297.587,36.5846 298.92,38.2512 299.5,40.5C 297.413,39.4154 296.08,37.7488 295.5,35.5 Z"/></g>
<g><path style="opacity:0.204" fill="#534e5e" d="M 242.5,39.5 C 242.573,41.0269 241.906,42.0269 240.5,42.5C 240.427,40.9731 241.094,39.9731 242.5,39.5 Z"/></g>
<g><path style="opacity:0.847" fill="#827e8c" d="M 285.5,48.5 C 287.048,48.8212 287.715,49.8212 287.5,51.5C 286.599,50.7095 285.932,49.7095 285.5,48.5 Z"/></g>
<g><path style="opacity:0.451" fill="#625e6d" d="M 301.5,45.5 C 303.04,47.8383 303.706,50.5049 303.5,53.5C 302.232,51.0948 301.565,48.4282 301.5,45.5 Z"/></g>
<g><path style="opacity:0.735" fill="#8c8794" d="M 238.5,49.5 C 238.425,55.5293 238.759,61.5293 239.5,67.5C 237.954,63.7677 236.954,59.7677 236.5,55.5C 236.878,53.2835 237.545,51.2835 238.5,49.5 Z"/></g>
<g><path style="opacity:0.027" fill="#413a4e" d="M 253.5,62.5 C 255.104,63.287 255.771,64.6203 255.5,66.5C 254.326,65.4863 253.66,64.153 253.5,62.5 Z"/></g>
<g><path style="opacity:0.545" fill="#6d697a" d="M 302.5,66.5 C 302.34,68.153 301.674,69.4863 300.5,70.5C 300.229,68.6203 300.896,67.287 302.5,66.5 Z"/></g>
<g><path style="opacity:0.663" fill="#817e8c" d="M 285.5,66.5 C 284.5,69.5 282.5,71.5 279.5,72.5C 281.167,70.1667 283.167,68.1667 285.5,66.5 Z"/></g>
<g><path style="opacity:0.078" fill="#3b364b" d="M 158.5,75.5 C 156.265,75.7947 154.265,75.4614 152.5,74.5C 152.435,74.0618 152.601,73.7284 153,73.5C 154.948,74.1094 156.782,74.776 158.5,75.5 Z"/></g>
<g><path style="opacity:0.714" fill="#6c6776" d="M 145.5,74.5 C 141.702,75.8684 137.702,76.8684 133.5,77.5C 137.358,75.2015 141.358,74.2015 145.5,74.5 Z"/></g>
<g><path style="opacity:0.898" fill="#7f7988" d="M 163.5,77.5 C 164.71,77.9321 165.71,78.5987 166.5,79.5C 164.821,79.7148 163.821,79.0481 163.5,77.5 Z"/></g>
<g><path style="opacity:0.004" fill="#322e3c" d="M 166.5,79.5 C 168.027,79.427 169.027,80.0937 169.5,81.5C 167.973,81.573 166.973,80.9063 166.5,79.5 Z"/></g>
<g><path style="opacity:0.294" fill="#565260" d="M 129.5,80.5 C 129.167,81.5 128.5,82.1667 127.5,82.5C 127.5,81.1667 128.167,80.5 129.5,80.5 Z"/></g>
<g><path style="opacity:0.749" fill="#767280" d="M 249.5,82.5 C 251.027,82.427 252.027,83.0937 252.5,84.5C 250.973,84.573 249.973,83.9063 249.5,82.5 Z"/></g>
<g><path style="opacity:0.208" fill="#474352" d="M 123.5,86.5 C 123.167,87.5 122.5,88.1667 121.5,88.5C 121.5,87.1667 122.167,86.5 123.5,86.5 Z"/></g>
<g><path style="opacity:0.243" fill="#595266" d="M 120.5,90.5 C 120.573,92.0269 119.906,93.0269 118.5,93.5C 118.427,91.9731 119.094,90.9731 120.5,90.5 Z"/></g>
<g><path style="opacity:0.792" fill="#746f7e" d="M 158.5,92.5 C 160.833,92.8333 162.167,94.1667 162.5,96.5C 160.833,95.5 159.5,94.1667 158.5,92.5 Z"/></g>
<g><path style="opacity:0.436" fill="#6d6978" d="M 260.5,88.5 C 261.828,93.4558 262.495,98.7891 262.5,104.5C 262.499,110.011 262.166,115.344 261.5,120.5C 261.602,110.065 261.269,99.3988 260.5,88.5 Z"/></g>
<g><path style="opacity:0.443" fill="#494656" d="M 118.5,93.5 C 118.737,94.791 118.404,95.791 117.5,96.5C 117.062,96.5654 116.728,96.3988 116.5,96C 117.066,95.0053 117.733,94.172 118.5,93.5 Z"/></g>
<g><path style="opacity:0.733" fill="#6f6a7b" d="M 179.5,95.5 C 181.109,96.6654 181.443,97.9988 180.5,99.5C 179.566,98.4324 179.232,97.099 179.5,95.5 Z"/></g>
<g><path style="opacity:0.671" fill="#6c6877" d="M 165.5,101.5 C 166.404,102.209 166.737,103.209 166.5,104.5C 165.733,103.828 165.066,102.995 164.5,102C 164.728,101.601 165.062,101.435 165.5,101.5 Z"/></g>
<g><path style="opacity:0.28" fill="#595761" d="M 277.5,89.5 C 277.56,100.043 277.56,110.376 277.5,120.5C 276.167,110.167 276.167,99.8333 277.5,89.5 Z"/></g>
<g><path style="opacity:0.953" fill="#aaa6b2" d="M 116.5,101.5 C 116.365,106.95 117.031,112.284 118.5,117.5C 117.034,116.653 116.2,115.32 116,113.5C 115.788,110.242 115.288,107.076 114.5,104C 115.066,103.005 115.733,102.172 116.5,101.5 Z"/></g>
<g><path style="opacity:0.459" fill="#4e4a5a" d="M 166.5,108.5 C 166.768,110.099 166.434,111.432 165.5,112.5C 165.062,112.565 164.728,112.399 164.5,112C 165.085,110.698 165.751,109.531 166.5,108.5 Z"/></g>
<g><path style="opacity:0.004" fill="#433e51" d="M 180.5,115.5 C 181.108,117.684 180.441,119.684 178.5,121.5C 178.595,119.214 179.262,117.214 180.5,115.5 Z"/></g>
<g><path style="opacity:0.337" fill="#555260" d="M 261.5,120.5 C 260.081,121.451 258.415,121.784 256.5,121.5C 257.856,119.462 259.523,119.128 261.5,120.5 Z"/></g>
<g><path style="opacity:0.522" fill="#5d5867" d="M 253.5,121.5 C 252.791,122.404 251.791,122.737 250.5,122.5C 251.172,121.733 252.005,121.066 253,120.5C 253.399,120.728 253.565,121.062 253.5,121.5 Z"/></g>
<g><path style="opacity:0.518" fill="#5c576b" d="M 290.5,122.5 C 289.209,122.737 288.209,122.404 287.5,121.5C 287.435,121.062 287.601,120.728 288,120.5C 288.995,121.066 289.828,121.733 290.5,122.5 Z"/></g>
<g><path style="opacity:0.741" fill="#76737f" d="M 248.5,122.5 C 246.485,123.924 244.152,124.59 241.5,124.5C 243.418,123.132 245.585,122.132 248,121.5C 248.399,121.728 248.565,122.062 248.5,122.5 Z"/></g>
<g><path style="opacity:0.451" fill="#5e5867" d="M 293.5,122.5 C 296.152,122.41 298.485,123.076 300.5,124.5C 297.848,124.59 295.515,123.924 293.5,122.5 Z"/></g>
<g><path style="opacity:0.29" fill="#494552" d="M 150.5,124.5 C 147.946,125.388 145.279,125.721 142.5,125.5C 144.684,124.734 147.018,124.067 149.5,123.5C 150.107,123.624 150.44,123.957 150.5,124.5 Z"/></g>
<g><path style="opacity:0.149" fill="#4a4755" d="M 307.5,126.5 C 310.241,126.707 312.574,127.707 314.5,129.5C 311.759,129.293 309.426,128.293 307.5,126.5 Z"/></g>
<g><path style="opacity:0.953" fill="#9b99a3" d="M 231.5,127.5 C 229.824,129.834 227.491,130.834 224.5,130.5C 226.426,128.707 228.759,127.707 231.5,127.5 Z"/></g>
<g><path style="opacity:0.329" fill="#423f4e" d="M 138.5,130.5 C 138.5,131.833 138.5,133.167 138.5,134.5C 135.833,133.167 135.833,131.833 138.5,130.5 Z"/></g>
<g><path style="opacity:0.667" fill="#7a7682" d="M 218.5,133.5 C 218.027,134.906 217.027,135.573 215.5,135.5C 215.973,134.094 216.973,133.427 218.5,133.5 Z"/></g>
<g><path style="opacity:0.051" fill="#4d485b" d="M 284.5,136.5 C 273.702,136.271 262.702,136.604 251.5,137.5C 262.317,135.282 273.317,134.948 284.5,136.5 Z"/></g>
<g><path style="opacity:0.796" fill="#7e7a89" d="M 139.5,137.5 C 141.027,137.427 142.027,138.094 142.5,139.5C 140.973,139.573 139.973,138.906 139.5,137.5 Z"/></g>
<g><path style="opacity:0.914" fill="#8d8995" d="M 291.5,137.5 C 296.464,137.816 300.797,139.483 304.5,142.5C 299.989,141.069 295.655,139.402 291.5,137.5 Z"/></g>
<g><path style="opacity:0.612" fill="#807c89" d="M 159.5,138.5 C 155.732,139.916 151.732,140.916 147.5,141.5C 145.578,141.199 143.912,140.533 142.5,139.5C 148.196,139.553 153.862,139.22 159.5,138.5 Z"/></g>
<g><path style="opacity:0.718" fill="#878293" d="M 210.5,138.5 C 210.027,139.906 209.027,140.573 207.5,140.5C 207.973,139.094 208.973,138.427 210.5,138.5 Z"/></g>
<g><path style="opacity:0.678" fill="#7d7786" d="M 202.5,144.5 C 202.027,145.906 201.027,146.573 199.5,146.5C 199.973,145.094 200.973,144.427 202.5,144.5 Z"/></g>
<g><path style="opacity:0.18" fill="#4b4553" d="M 196.5,145.5 C 197.391,146.11 198.391,146.443 199.5,146.5C 198.053,147.885 197.053,147.552 196.5,145.5 Z"/></g>
<g><path style="opacity:0.635" fill="#706978" d="M 345.5,150.5 C 343.167,150.5 340.833,150.5 338.5,150.5C 339.531,149.751 340.698,149.085 342,148.5C 343.302,149.085 344.469,149.751 345.5,150.5 Z"/></g>
<g><path style="opacity:1" fill="#f3f2f3" d="M 338.5,150.5 C 340.833,150.5 343.167,150.5 345.5,150.5C 346.167,150.833 346.833,151.167 347.5,151.5C 348.419,154.089 350.086,156.089 352.5,157.5C 353.419,160.089 355.086,162.089 357.5,163.5C 357.5,164.167 357.833,164.5 358.5,164.5C 358.427,166.027 359.094,167.027 360.5,167.5C 361.338,167.842 361.672,168.508 361.5,169.5C 361.427,171.027 362.094,172.027 363.5,172.5C 364.674,173.514 365.34,174.847 365.5,176.5C 365.427,178.027 366.094,179.027 367.5,179.5C 369.213,182.294 370.546,185.294 371.5,188.5C 371.259,190.898 371.926,192.898 373.5,194.5C 375.233,195.008 375.566,195.841 374.5,197C 377.588,203.935 378.922,211.101 378.5,218.5C 378.821,220.048 379.821,220.715 381.5,220.5C 387.833,220.5 394.167,220.5 400.5,220.5C 404.649,221.08 408.316,220.414 411.5,218.5C 414.395,208.604 420.729,201.937 430.5,198.5C 433.152,198.59 435.485,197.924 437.5,196.5C 441.487,195.295 445.487,195.295 449.5,196.5C 451.214,197.738 453.214,198.405 455.5,198.5C 463.122,201.79 468.789,207.123 472.5,214.5C 472.69,217.855 473.69,220.855 475.5,223.5C 476.833,227.5 476.833,231.5 475.5,235.5C 474.463,236.93 473.796,238.597 473.5,240.5C 466.949,256.778 454.949,263.778 437.5,261.5C 435.485,260.076 433.152,259.41 430.5,259.5C 425.698,257.873 421.532,255.206 418,251.5C 414.251,246.881 411.251,241.881 409,236.5C 399.207,235.537 389.374,235.204 379.5,235.5C 379.675,237.621 379.341,239.621 378.5,241.5C 377.532,243.607 377.198,245.941 377.5,248.5C 377.702,250.95 377.369,253.283 376.5,255.5C 374.787,256.635 374.12,258.302 374.5,260.5C 374.5,260.833 374.5,261.167 374.5,261.5C 373.662,261.842 373.328,262.508 373.5,263.5C 373.5,263.833 373.5,264.167 373.5,264.5C 372.069,265.78 371.402,267.447 371.5,269.5C 367.624,280.257 361.957,289.924 354.5,298.5C 353.285,299.779 353.618,300.779 355.5,301.5C 362.298,307.797 368.965,314.297 375.5,321C 376.819,321.195 378.153,321.028 379.5,320.5C 382.152,320.59 384.485,319.924 386.5,318.5C 403.118,316.124 415.118,322.458 422.5,337.5C 424.672,345.411 425.005,353.411 423.5,361.5C 416.085,379.378 402.751,386.545 383.5,383C 372.758,379.756 365.424,372.922 361.5,362.5C 360.167,354.833 360.167,347.167 361.5,339.5C 362.086,337.16 363.086,334.993 364.5,333C 357.319,325.652 349.986,318.485 342.5,311.5C 331.914,320.031 320.247,326.698 307.5,331.5C 305.214,331.595 303.214,332.262 301.5,333.5C 299.958,334.301 298.292,334.634 296.5,334.5C 294.473,334.338 292.473,334.505 290.5,335C 289.944,335.383 289.611,335.883 289.5,336.5C 289.167,336.5 288.833,336.5 288.5,336.5C 285.223,336.216 282.057,336.549 279,337.5C 278.175,348.341 278.341,359.008 279.5,369.5C 290.77,372.438 298.103,379.438 301.5,390.5C 302.833,397.833 302.833,405.167 301.5,412.5C 297.798,422.202 291.132,428.868 281.5,432.5C 275.87,433.292 270.203,433.625 264.5,433.5C 264.167,433.5 263.833,433.5 263.5,433.5C 261.898,431.926 259.898,431.259 257.5,431.5C 252.418,429.957 248.418,426.957 245.5,422.5C 245.5,419.833 245.5,417.167 245.5,414.5C 248.267,410.256 251.934,409.422 256.5,412C 257.705,413.376 259.038,414.542 260.5,415.5C 260.821,417.048 261.821,417.715 263.5,417.5C 264.609,417.557 265.609,417.89 266.5,418.5C 269.64,419.641 272.973,419.808 276.5,419C 277.056,418.617 277.389,418.117 277.5,417.5C 280.009,416.079 282.343,414.412 284.5,412.5C 285.906,412.027 286.573,411.027 286.5,409.5C 289.977,399.392 287.31,391.392 278.5,385.5C 277.365,383.787 275.698,383.12 273.5,383.5C 265.312,383.34 259.145,386.674 255,393.5C 252.096,397.22 248.596,398.22 244.5,396.5C 244.027,395.094 243.027,394.427 241.5,394.5C 240.431,391.592 240.264,388.592 241,385.5C 245.691,377.407 252.524,372.073 261.5,369.5C 262.5,369.5 263.5,369.5 264.5,369.5C 265.143,358.448 264.476,347.781 262.5,337.5C 262.167,337.5 261.833,337.5 261.5,337.5C 259.052,336.527 256.385,336.194 253.5,336.5C 250.164,336.533 246.997,335.866 244,334.5C 242.687,335.287 241.52,334.954 240.5,333.5C 240.5,333.167 240.5,332.833 240.5,332.5C 238.579,330.052 236.079,327.385 233,324.5C 232.28,322.888 232.446,321.388 233.5,320C 235.061,319.812 235.728,320.645 235.5,322.5C 236.833,322.5 238.167,322.5 239.5,322.5C 239.5,324.167 239.5,325.833 239.5,327.5C 242.113,325.527 245.113,324.027 248.5,323C 245.495,321.801 242.329,320.968 239,320.5C 236.945,319.281 235.445,317.614 234.5,315.5C 238.833,316.833 243.167,318.167 247.5,319.5C 249.78,321.223 252.447,321.889 255.5,321.5C 263.146,322.207 270.813,322.54 278.5,322.5C 281.518,322.665 284.518,322.498 287.5,322C 288.416,321.722 289.082,321.222 289.5,320.5C 302.02,317.405 313.686,312.405 324.5,305.5C 326.027,305.573 327.027,304.906 327.5,303.5C 341.495,291.858 351.828,277.524 358.5,260.5C 360.472,257.916 361.472,254.916 361.5,251.5C 362.06,247.807 362.727,244.14 363.5,240.5C 364.833,232.833 364.833,225.167 363.5,217.5C 363.5,217.167 363.5,216.833 363.5,216.5C 364.036,213.302 363.369,210.635 361.5,208.5C 360.85,206.565 360.517,204.565 360.5,202.5C 360.598,200.447 359.931,198.78 358.5,197.5C 353.098,183.024 344.931,170.358 334,159.5C 332.878,155.077 334.378,152.077 338.5,150.5 Z M 449.5,245.5 C 445.167,246.833 440.833,246.833 436.5,245.5C 432.114,243.114 428.78,239.781 426.5,235.5C 425.696,231.619 425.362,227.953 425.5,224.5C 432.178,211.44 441.845,208.607 454.5,216C 460.161,223.227 460.994,231.06 457,239.5C 454.886,242.121 452.386,244.121 449.5,245.5 Z M 388.5,333.5 C 390.523,333.715 392.856,333.715 395.5,333.5C 397.5,334.167 399.5,334.833 401.5,335.5C 401.973,336.906 402.973,337.573 404.5,337.5C 405.167,338.5 405.833,339.5 406.5,340.5C 406.932,341.71 407.599,342.71 408.5,343.5C 409.344,347.099 409.677,350.766 409.5,354.5C 407.504,361.163 403.171,365.496 396.5,367.5C 392.452,367.605 388.452,367.272 384.5,366.5C 383.101,365.11 381.434,364.11 379.5,363.5C 379.573,361.973 378.906,360.973 377.5,360.5C 374.881,355.373 374.214,350.04 375.5,344.5C 376.906,344.027 377.573,343.027 377.5,341.5C 377.5,341.167 377.5,340.833 377.5,340.5C 378.833,340.5 379.5,339.833 379.5,338.5C 382.048,336.058 385.048,334.392 388.5,333.5 Z"/></g>
<g><path style="opacity:0.443" fill="#3f3d4b" d="M 347.5,151.5 C 349.914,152.911 351.581,154.911 352.5,157.5C 350.086,156.089 348.419,154.089 347.5,151.5 Z"/></g>
<g><path style="opacity:0.592" fill="#65616f" d="M 259.5,153.5 C 258.081,154.451 256.415,154.784 254.5,154.5C 255.896,152.627 257.563,152.294 259.5,153.5 Z"/></g>
<g><path style="opacity:1" fill="#f1f0f1" d="M 282.5,153.5 C 283.209,154.404 284.209,154.737 285.5,154.5C 286.167,154.5 286.833,154.5 287.5,154.5C 290.505,156.277 293.838,157.277 297.5,157.5C 299.403,157.796 301.07,158.463 302.5,159.5C 303.514,160.674 304.847,161.34 306.5,161.5C 307.833,162.167 309.167,162.833 310.5,163.5C 311.035,165.446 312.368,166.446 314.5,166.5C 316.23,167.026 317.564,168.026 318.5,169.5C 320.118,171.785 322.118,173.785 324.5,175.5C 325.167,175.833 325.833,176.167 326.5,176.5C 327.08,178.749 328.413,180.415 330.5,181.5C 331.488,182.795 332.488,184.128 333.5,185.5C 333.427,187.027 334.094,188.027 335.5,188.5C 336.674,189.514 337.34,190.847 337.5,192.5C 337.427,194.027 338.094,195.027 339.5,195.5C 339.5,195.833 339.5,196.167 339.5,196.5C 339.427,198.027 340.094,199.027 341.5,199.5C 341.5,199.833 341.5,200.167 341.5,200.5C 342.2,204.798 342.533,209.131 342.5,213.5C 338.376,217.442 334.209,217.442 330,213.5C 328.062,209.178 326.229,204.845 324.5,200.5C 324.715,198.821 324.048,197.821 322.5,197.5C 317.854,189.188 311.52,182.522 303.5,177.5C 303.027,176.094 302.027,175.427 300.5,175.5C 296.737,174.299 293.07,172.799 289.5,171C 285.138,170.083 280.805,169.249 276.5,168.5C 271.266,167.198 265.933,167.198 260.5,168.5C 256.818,169.371 253.152,170.371 249.5,171.5C 247.62,171.229 246.287,171.896 245.5,173.5C 237.71,177.274 230.71,182.274 224.5,188.5C 223.094,188.973 222.427,189.973 222.5,191.5C 218.755,196.388 215.755,201.721 213.5,207.5C 211.926,209.102 211.259,211.102 211.5,213.5C 210.883,213.611 210.383,213.944 210,214.5C 209.503,216.81 209.337,219.143 209.5,221.5C 209.435,228.524 209.768,235.524 210.5,242.5C 210.565,245.428 211.232,248.095 212.5,250.5C 214.245,252.033 215.245,254.033 215.5,256.5C 215.427,258.027 216.094,259.027 217.5,259.5C 225.2,272.533 236.2,281.533 250.5,286.5C 253.321,288.712 256.655,289.712 260.5,289.5C 267.5,290.833 274.5,290.833 281.5,289.5C 284.228,289.829 286.562,289.163 288.5,287.5C 304.789,282.046 316.956,271.712 325,256.5C 327.991,248.692 330.825,240.858 333.5,233C 336.366,231.543 339.366,231.21 342.5,232C 344.141,233.129 345.141,234.629 345.5,236.5C 345.5,239.5 345.5,242.5 345.5,245.5C 345.65,249.195 344.65,252.528 342.5,255.5C 341.662,255.842 341.328,256.508 341.5,257.5C 341.598,259.553 340.931,261.22 339.5,262.5C 338.326,263.514 337.66,264.847 337.5,266.5C 336.737,268.368 335.737,270.035 334.5,271.5C 333.5,271.833 332.833,272.5 332.5,273.5C 324.061,286.092 312.727,295.259 298.5,301C 296.134,301.44 293.801,301.94 291.5,302.5C 288.447,302.111 285.78,302.777 283.5,304.5C 273.468,304.729 263.468,304.396 253.5,303.5C 247.064,302.726 241.064,300.726 235.5,297.5C 235.027,296.094 234.027,295.427 232.5,295.5C 217.261,286.589 206.261,273.922 199.5,257.5C 199.598,255.447 198.931,253.78 197.5,252.5C 197.662,250.473 197.495,248.473 197,246.5C 196.617,245.944 196.117,245.611 195.5,245.5C 192.148,231.164 193.148,217.164 198.5,203.5C 199.404,202.791 199.737,201.791 199.5,200.5C 200.659,196.849 202.326,193.515 204.5,190.5C 205.906,190.027 206.573,189.027 206.5,187.5C 216.125,172.357 229.459,162.024 246.5,156.5C 249.428,156.435 252.095,155.768 254.5,154.5C 256.415,154.784 258.081,154.451 259.5,153.5C 267.167,152.167 274.833,152.167 282.5,153.5 Z"/></g>
<g><path style="opacity:0.627" fill="#6c6878" d="M 285.5,154.5 C 284.209,154.737 283.209,154.404 282.5,153.5C 282.435,153.062 282.601,152.728 283,152.5C 283.995,153.066 284.828,153.733 285.5,154.5 Z"/></g>
<g><path style="opacity:0.702" fill="#807c88" d="M 254.5,154.5 C 252.095,155.768 249.428,156.435 246.5,156.5C 248.838,154.96 251.505,154.294 254.5,154.5 Z"/></g>
<g><path style="opacity:0.506" fill="#787382" d="M 287.5,154.5 C 291.162,154.723 294.495,155.723 297.5,157.5C 293.838,157.277 290.505,156.277 287.5,154.5 Z"/></g>
<g><path style="opacity:0.051" fill="#433f51" d="M 302.5,159.5 C 304.38,159.229 305.713,159.896 306.5,161.5C 304.847,161.34 303.514,160.674 302.5,159.5 Z"/></g>
<g><path style="opacity:0.227" fill="#5b5867" d="M 352.5,157.5 C 354.914,158.911 356.581,160.911 357.5,163.5C 355.086,162.089 353.419,160.089 352.5,157.5 Z"/></g>
<g><path style="opacity:0.886" fill="#7a7684" d="M 310.5,163.5 C 312.23,164.026 313.564,165.026 314.5,166.5C 312.368,166.446 311.035,165.446 310.5,163.5 Z"/></g>
<g><path style="opacity:0.173" fill="#3d394d" d="M 358.5,164.5 C 359.906,164.973 360.573,165.973 360.5,167.5C 359.094,167.027 358.427,166.027 358.5,164.5 Z"/></g>
<g><path style="opacity:0.124" fill="#524d5e" d="M 276.5,168.5 C 270.943,168.688 265.61,168.688 260.5,168.5C 265.933,167.198 271.266,167.198 276.5,168.5 Z"/></g>
<g><path style="opacity:0.945" fill="#807c89" d="M 318.5,169.5 C 321.522,170.522 323.522,172.522 324.5,175.5C 322.118,173.785 320.118,171.785 318.5,169.5 Z"/></g>
<g><path style="opacity:0.361" fill="#666372" d="M 361.5,169.5 C 362.906,169.973 363.573,170.973 363.5,172.5C 362.094,172.027 361.427,171.027 361.5,169.5 Z"/></g>
<g><path style="opacity:0.024" fill="#494556" d="M 249.5,171.5 C 248.486,172.674 247.153,173.34 245.5,173.5C 246.287,171.896 247.62,171.229 249.5,171.5 Z"/></g>
<g><path style="opacity:0.51" fill="#797581" d="M 300.5,175.5 C 302.027,175.427 303.027,176.094 303.5,177.5C 301.973,177.573 300.973,176.906 300.5,175.5 Z"/></g>
<g><path style="opacity:0.576" fill="#585365" d="M 326.5,176.5 C 328.587,177.585 329.92,179.251 330.5,181.5C 328.413,180.415 327.08,178.749 326.5,176.5 Z"/></g>
<g><path style="opacity:0.341" fill="#6b6677" d="M 365.5,176.5 C 366.906,176.973 367.573,177.973 367.5,179.5C 366.094,179.027 365.427,178.027 365.5,176.5 Z"/></g>
<g><path style="opacity:1" fill="#f2f2f2" d="M 290.5,219.5 C 288.167,219.5 285.833,219.5 283.5,219.5C 281.856,219.19 280.856,218.19 280.5,216.5C 280.586,215.504 280.252,214.671 279.5,214C 277,213.833 274.5,213.667 272,213.5C 269.071,213.525 266.571,214.191 264.5,215.5C 261.833,217.5 261.833,219.5 264.5,221.5C 270.443,223.292 276.777,224.292 283.5,224.5C 285.062,224.733 286.395,225.4 287.5,226.5C 287.731,229.063 289.065,230.73 291.5,231.5C 294.749,235.027 295.749,239.027 294.5,243.5C 293.566,244.568 293.232,245.901 293.5,247.5C 293.443,248.609 293.11,249.609 292.5,250.5C 291.662,250.842 291.328,251.508 291.5,252.5C 288.588,257.245 284.422,260.245 279,261.5C 278.667,264.5 278.333,267.5 278,270.5C 273.379,276.767 268.712,277.1 264,271.5C 263.517,270.552 263.351,269.552 263.5,268.5C 263.5,265.833 263.5,263.167 263.5,260.5C 261.5,260.5 259.5,260.5 257.5,260.5C 253.195,259.847 250.195,257.514 248.5,253.5C 248.5,250.167 248.5,246.833 248.5,243.5C 251.267,239.256 254.934,238.422 259.5,241C 260.823,241.816 261.489,242.983 261.5,244.5C 263.743,245.812 266.41,246.478 269.5,246.5C 272.355,246.497 275.022,246.164 277.5,245.5C 278.768,243.33 278.768,241.163 277.5,239C 269.884,238.961 262.55,237.628 255.5,235C 252.906,232.914 250.906,230.414 249.5,227.5C 249.598,225.447 248.931,223.78 247.5,222.5C 247.425,218.019 248.092,213.686 249.5,209.5C 251.967,204.369 255.967,201.036 261.5,199.5C 261.397,193.97 263.397,189.47 267.5,186C 276.501,185.177 280.168,189.344 278.5,198.5C 289.773,198.809 294.94,204.809 294,216.5C 292.961,217.71 291.794,218.71 290.5,219.5 Z"/></g>
<g><path style="opacity:0.298" fill="#585165" d="M 333.5,185.5 C 334.906,185.973 335.573,186.973 335.5,188.5C 334.094,188.027 333.427,187.027 333.5,185.5 Z"/></g>
<g><path style="opacity:0.447" fill="#787180" d="M 206.5,187.5 C 206.573,189.027 205.906,190.027 204.5,190.5C 204.427,188.973 205.094,187.973 206.5,187.5 Z"/></g>
<g><path style="opacity:0.008" fill="#413b4d" d="M 224.5,188.5 C 224.573,190.027 223.906,191.027 222.5,191.5C 222.427,189.973 223.094,188.973 224.5,188.5 Z"/></g>
<g><path style="opacity:0.973" fill="#9894a2" d="M 371.5,188.5 C 373.074,190.102 373.741,192.102 373.5,194.5C 371.926,192.898 371.259,190.898 371.5,188.5 Z"/></g>
<g><path style="opacity:0.286" fill="#514d5b" d="M 185.5,190.5 C 185.34,192.153 184.674,193.486 183.5,194.5C 183.229,192.62 183.896,191.287 185.5,190.5 Z"/></g>
<g><path style="opacity:0.349" fill="#676371" d="M 337.5,192.5 C 338.906,192.973 339.573,193.973 339.5,195.5C 338.094,195.027 337.427,194.027 337.5,192.5 Z"/></g>
<g><path style="opacity:0.8" fill="#797583" d="M 167.5,193.5 C 167.59,196.152 166.924,198.485 165.5,200.5C 165.171,197.772 165.837,195.438 167.5,193.5 Z"/></g>
<g><path style="opacity:0.004" fill="#3e3a4c" d="M 449.5,196.5 C 451.898,196.259 453.898,196.926 455.5,198.5C 453.214,198.405 451.214,197.738 449.5,196.5 Z"/></g>
<g><path style="opacity:0.843" fill="#918d9b" d="M 92.5,196.5 C 90.4855,197.924 88.1522,198.59 85.5,198.5C 87.5145,197.076 89.8478,196.41 92.5,196.5 Z"/></g>
<g><path style="opacity:0.361" fill="#5d5967" d="M 105.5,196.5 C 107.553,196.402 109.22,197.069 110.5,198.5C 108.447,198.598 106.78,197.931 105.5,196.5 Z"/></g>
<g><path style="opacity:0.851" fill="#7c7987" d="M 322.5,197.5 C 324.048,197.821 324.715,198.821 324.5,200.5C 323.599,199.71 322.932,198.71 322.5,197.5 Z"/></g>
<g><path style="opacity:0.882" fill="#9a97a2" d="M 437.5,196.5 C 435.485,197.924 433.152,198.59 430.5,198.5C 432.438,196.837 434.772,196.171 437.5,196.5 Z"/></g>
<g><path style="opacity:0.196" fill="#514d5f" d="M 339.5,196.5 C 340.906,196.973 341.573,197.973 341.5,199.5C 340.094,199.027 339.427,198.027 339.5,196.5 Z"/></g>
<g><path style="opacity:0.416" fill="#6a6574" d="M 358.5,197.5 C 359.931,198.78 360.598,200.447 360.5,202.5C 359.069,201.22 358.402,199.553 358.5,197.5 Z"/></g>
<g><path style="opacity:0.616" fill="#686472" d="M 199.5,200.5 C 199.737,201.791 199.404,202.791 198.5,203.5C 198.062,203.565 197.728,203.399 197.5,203C 198.066,202.005 198.733,201.172 199.5,200.5 Z"/></g>
<g><path style="opacity:0.016" fill="#46404e" d="M 180.5,202.5 C 180.938,202.435 181.272,202.601 181.5,203C 180.915,204.302 180.249,205.469 179.5,206.5C 179.232,204.901 179.566,203.568 180.5,202.5 Z"/></g>
<g><path style="opacity:1" fill="#b0acb7" d="M 341.5,200.5 C 342.966,203.059 343.966,205.892 344.5,209C 344.475,210.876 343.809,212.376 342.5,213.5C 342.533,209.131 342.2,204.798 341.5,200.5 Z"/></g>
<g><path style="opacity:0.929" fill="#9f9ba7" d="M 361.5,208.5 C 363.369,210.635 364.036,213.302 363.5,216.5C 362.629,213.997 361.963,211.33 361.5,208.5 Z"/></g>
<g><path style="opacity:0.094" fill="#3b3646" d="M 213.5,207.5 C 213.405,209.786 212.738,211.786 211.5,213.5C 211.259,211.102 211.926,209.102 213.5,207.5 Z"/></g>
<g><path style="opacity:0.756" fill="#97949c" d="M 280.5,216.5 C 278.497,214.985 276.163,214.319 273.5,214.5C 270.483,214.768 267.483,215.102 264.5,215.5C 266.571,214.191 269.071,213.525 272,213.5C 274.5,213.667 277,213.833 279.5,214C 280.252,214.671 280.586,215.504 280.5,216.5 Z"/></g>
<g><path style="opacity:0.631" fill="#706b7b" d="M 249.5,209.5 C 248.092,213.686 247.425,218.019 247.5,222.5C 245.954,217.881 246.62,213.548 249.5,209.5 Z"/></g>
<g><path style="opacity:0.78" fill="#8c8996" d="M 211.5,213.5 C 211.198,216.373 210.531,219.039 209.5,221.5C 209.337,219.143 209.503,216.81 210,214.5C 210.383,213.944 210.883,213.611 211.5,213.5 Z"/></g>
<g><path style="opacity:0.773" fill="#8b8793" d="M 283.5,219.5 C 285.833,219.5 288.167,219.5 290.5,219.5C 289.469,220.249 288.302,220.915 287,221.5C 285.698,220.915 284.531,220.249 283.5,219.5 Z"/></g>
<g><path style="opacity:0.004" fill="#302c3a" d="M 378.5,218.5 C 379.71,218.932 380.71,219.599 381.5,220.5C 379.821,220.715 378.821,220.048 378.5,218.5 Z"/></g>
<g><path style="opacity:0.013" fill="#262132" d="M 411.5,218.5 C 408.316,220.414 404.649,221.08 400.5,220.5C 404.061,219.77 407.727,219.103 411.5,218.5 Z"/></g>
<g><path style="opacity:0.71" fill="#7d7a86" d="M 472.5,214.5 C 474.472,217.084 475.472,220.084 475.5,223.5C 473.69,220.855 472.69,217.855 472.5,214.5 Z"/></g>
<g><path style="opacity:0.745" fill="#bab7c3" d="M 163.5,209.5 C 163.331,214.181 162.998,218.848 162.5,223.5C 151.5,223.5 140.5,223.5 129.5,223.5C 129.007,221.194 128.674,218.861 128.5,216.5C 129.738,218.214 130.405,220.214 130.5,222.5C 140.833,222.5 151.167,222.5 161.5,222.5C 161.438,217.924 162.105,213.591 163.5,209.5 Z"/></g>
<g><path style="opacity:0.609" fill="#8f8b9a" d="M 264.5,221.5 C 270.085,222.288 275.752,222.788 281.5,223C 282.416,223.278 283.082,223.778 283.5,224.5C 276.777,224.292 270.443,223.292 264.5,221.5 Z"/></g>
<g><path style="opacity:0.631" fill="#827e8d" d="M 247.5,222.5 C 248.931,223.78 249.598,225.447 249.5,227.5C 248.069,226.22 247.402,224.553 247.5,222.5 Z"/></g>
<g><path style="opacity:0.884" fill="#938e98" d="M 66.5,219.5 C 66.2803,226.543 66.6136,233.543 67.5,240.5C 63.998,233.65 63.6647,226.65 66.5,219.5 Z"/></g>
<g><path style="opacity:0.308" fill="#575362" d="M 425.5,224.5 C 425.362,227.953 425.696,231.619 426.5,235.5C 424.431,231.956 424.098,228.29 425.5,224.5 Z"/></g>
<g><path style="opacity:0.992" fill="#a4a0ad" d="M 287.5,226.5 C 289.207,227.873 290.54,229.539 291.5,231.5C 289.065,230.73 287.731,229.063 287.5,226.5 Z"/></g>
<g><path style="opacity:0.09" fill="#5c5965" d="M 363.5,217.5 C 364.833,225.167 364.833,232.833 363.5,240.5C 363.442,233.141 363.442,225.475 363.5,217.5 Z"/></g>
<g><path style="opacity:0.969" fill="#a3a0ac" d="M 115.5,226.5 C 116.158,227.793 116.492,229.293 116.5,231C 116.431,232.986 115.765,234.486 114.5,235.5C 115.299,232.57 115.632,229.57 115.5,226.5 Z"/></g>
<g><path style="opacity:0.033" fill="#312d39" d="M 162.5,240.5 C 162.5,241.167 162.5,241.833 162.5,242.5C 161.566,241.432 161.232,240.099 161.5,238.5C 150.752,238.191 140.085,238.524 129.5,239.5C 140.116,237.523 151.116,236.856 162.5,237.5C 162.5,238.5 162.5,239.5 162.5,240.5 Z"/></g>
<g><path style="opacity:0.016" fill="#312d40" d="M 475.5,235.5 C 475.88,237.698 475.213,239.365 473.5,240.5C 473.796,238.597 474.463,236.93 475.5,235.5 Z"/></g>
<g><path style="opacity:0.886" fill="#888593" d="M 177.5,221.5 C 177.188,231.248 177.855,240.915 179.5,250.5C 177.989,248.524 177.156,246.191 177,243.5C 176.178,235.988 176.345,228.655 177.5,221.5 Z"/></g>
<g><path style="opacity:0.051" fill="#45414f" d="M 345.5,236.5 C 346.391,237.261 347.058,238.261 347.5,239.5C 346.95,241.657 346.283,243.657 345.5,245.5C 345.5,242.5 345.5,239.5 345.5,236.5 Z"/></g>
<g><path style="opacity:0.596" fill="#a19da8" d="M 162.5,240.5 C 163.989,244.236 164.656,248.236 164.5,252.5C 162.989,249.456 162.322,246.122 162.5,242.5C 162.5,241.833 162.5,241.167 162.5,240.5 Z"/></g>
<g><path style="opacity:0.847" fill="#7e7986" d="M 88.5,243.5 C 89.7095,243.932 90.7095,244.599 91.5,245.5C 89.8212,245.715 88.8212,245.048 88.5,243.5 Z"/></g>
<g><path style="opacity:0.722" fill="#848091" d="M 294.5,243.5 C 296.078,245.375 295.745,246.708 293.5,247.5C 293.232,245.901 293.566,244.568 294.5,243.5 Z"/></g>
<g><path style="opacity:0.424" fill="#625c6b" d="M 378.5,241.5 C 379.65,244.049 379.316,246.383 377.5,248.5C 377.198,245.941 377.532,243.607 378.5,241.5 Z"/></g>
<g><path style="opacity:0.702" fill="#86828e" d="M 210.5,242.5 C 212.249,245.045 212.915,247.712 212.5,250.5C 211.232,248.095 210.565,245.428 210.5,242.5 Z"/></g>
<g><path style="opacity:0.315" fill="#6c6875" d="M 261.5,244.5 C 266.74,245.449 272.073,245.782 277.5,245.5C 275.022,246.164 272.355,246.497 269.5,246.5C 266.41,246.478 263.743,245.812 261.5,244.5 Z"/></g>
<g><path style="opacity:0.686" fill="#96929e" d="M 91.5,245.5 C 95.1185,246.244 98.7852,246.577 102.5,246.5C 101.207,247.158 99.7067,247.492 98,247.5C 95.4563,247.664 93.2897,246.997 91.5,245.5 Z"/></g>
<g><path style="opacity:0.853" fill="#8f8a9a" d="M 248.5,243.5 C 248.5,246.833 248.5,250.167 248.5,253.5C 246.036,250.134 246.036,246.8 248.5,243.5 Z"/></g>
<g><path style="opacity:0.698" fill="#928e9b" d="M 436.5,245.5 C 440.833,246.833 445.167,246.833 449.5,245.5C 447.538,247.017 445.205,247.684 442.5,247.5C 440.833,247.333 439.167,247.167 437.5,247C 436.944,246.617 436.611,246.117 436.5,245.5 Z"/></g>
<g><path style="opacity:0.878" fill="#94909d" d="M 195.5,245.5 C 196.117,245.611 196.617,245.944 197,246.5C 197.495,248.473 197.662,250.473 197.5,252.5C 196.593,250.343 195.927,248.01 195.5,245.5 Z"/></g>
<g><path style="opacity:0.027" fill="#3a3548" d="M 292.5,250.5 C 293.439,251.327 293.105,251.994 291.5,252.5C 291.328,251.508 291.662,250.842 292.5,250.5 Z"/></g>
<g><path style="opacity:0.749" fill="#746e7d" d="M 179.5,251.5 C 181.109,252.665 181.443,253.999 180.5,255.5C 179.566,254.432 179.232,253.099 179.5,251.5 Z"/></g>
<g><path style="opacity:0.773" fill="#76727f" d="M 361.5,251.5 C 361.472,254.916 360.472,257.916 358.5,260.5C 358.928,257.215 359.928,254.215 361.5,251.5 Z"/></g>
<g><path style="opacity:0.29" fill="#585363" d="M 197.5,252.5 C 198.931,253.78 199.598,255.447 199.5,257.5C 198.069,256.22 197.402,254.553 197.5,252.5 Z"/></g>
<g><path style="opacity:0.035" fill="#373443" d="M 342.5,255.5 C 343.439,256.327 343.105,256.994 341.5,257.5C 341.328,256.508 341.662,255.842 342.5,255.5 Z"/></g>
<g><path style="opacity:0.702" fill="#7d798a" d="M 376.5,255.5 C 376.204,257.403 375.537,259.07 374.5,260.5C 374.12,258.302 374.787,256.635 376.5,255.5 Z"/></g>
<g><path style="opacity:0.082" fill="#423e4f" d="M 81.5,257.5 C 83.0269,257.427 84.0269,258.094 84.5,259.5C 82.9731,259.573 81.9731,258.906 81.5,257.5 Z"/></g>
<g><path style="opacity:0.161" fill="#534c5d" d="M 215.5,256.5 C 216.906,256.973 217.573,257.973 217.5,259.5C 216.094,259.027 215.427,258.027 215.5,256.5 Z"/></g>
<g><path style="opacity:0.945" fill="#9a97a2" d="M 430.5,259.5 C 433.152,259.41 435.485,260.076 437.5,261.5C 434.848,261.59 432.515,260.924 430.5,259.5 Z"/></g>
<g><path style="opacity:0.522" fill="#585464" d="M 166.5,261.5 C 167.404,262.209 167.737,263.209 167.5,264.5C 166.733,263.828 166.066,262.995 165.5,262C 165.728,261.601 166.062,261.435 166.5,261.5 Z"/></g>
<g><path style="opacity:0.075" fill="#3f3c4b" d="M 374.5,261.5 C 375.439,262.327 375.105,262.994 373.5,263.5C 373.328,262.508 373.662,261.842 374.5,261.5 Z"/></g>
<g><path style="opacity:0.067" fill="#454153" d="M 257.5,260.5 C 259.5,260.5 261.5,260.5 263.5,260.5C 263.5,263.167 263.5,265.833 263.5,268.5C 262.532,266.393 262.198,264.059 262.5,261.5C 260.585,261.784 258.919,261.451 257.5,260.5 Z"/></g>
<g><path style="opacity:0.004" fill="#3f3948" d="M 339.5,262.5 C 339.771,264.38 339.104,265.713 337.5,266.5C 337.66,264.847 338.326,263.514 339.5,262.5 Z"/></g>
<g><path style="opacity:0.294" fill="#575364" d="M 373.5,264.5 C 373.598,266.553 372.931,268.22 371.5,269.5C 371.402,267.447 372.069,265.78 373.5,264.5 Z"/></g>
<g><path style="opacity:0.004" fill="#393646" d="M 334.5,271.5 C 334.5,272.833 333.833,273.5 332.5,273.5C 332.833,272.5 333.5,271.833 334.5,271.5 Z"/></g>
<g><path style="opacity:0.376" fill="#534f60" d="M 250.5,286.5 C 254.025,287.21 257.358,288.21 260.5,289.5C 256.655,289.712 253.321,288.712 250.5,286.5 Z"/></g>
<g><path style="opacity:0.635" fill="#7a7683" d="M 288.5,287.5 C 286.562,289.163 284.228,289.829 281.5,289.5C 283.599,288.388 285.933,287.721 288.5,287.5 Z"/></g>
<g><path style="opacity:0.067" fill="#433c50" d="M 232.5,295.5 C 234.027,295.427 235.027,296.094 235.5,297.5C 233.973,297.573 232.973,296.906 232.5,295.5 Z"/></g>
<g><path style="opacity:0.259" fill="#36333f" d="M 354.5,298.5 C 355.11,299.391 355.443,300.391 355.5,301.5C 353.618,300.779 353.285,299.779 354.5,298.5 Z"/></g>
<g><path style="opacity:0.51" fill="#8f8a9a" d="M 291.5,302.5 C 289.095,303.768 286.428,304.435 283.5,304.5C 285.78,302.777 288.447,302.111 291.5,302.5 Z"/></g>
<g><path style="opacity:0.153" fill="#5a5564" d="M 253.5,303.5 C 263.468,304.396 273.468,304.729 283.5,304.5C 279.74,305.794 275.74,306.46 271.5,306.5C 265.207,306.364 259.207,305.364 253.5,303.5 Z"/></g>
<g><path style="opacity:0.702" fill="#878391" d="M 327.5,303.5 C 327.027,304.906 326.027,305.573 324.5,305.5C 324.973,304.094 325.973,303.427 327.5,303.5 Z"/></g>
<g><path style="opacity:0.933" fill="#a5a1ae" d="M 386.5,318.5 C 384.485,319.924 382.152,320.59 379.5,320.5C 381.515,319.076 383.848,318.41 386.5,318.5 Z"/></g>
<g><path style="opacity:0.6" fill="#726f7c" d="M 247.5,319.5 C 250.373,319.802 253.039,320.469 255.5,321.5C 252.447,321.889 249.78,321.223 247.5,319.5 Z"/></g>
<g><path style="opacity:0.902" fill="#9793a0" d="M 289.5,320.5 C 289.082,321.222 288.416,321.722 287.5,322C 284.518,322.498 281.518,322.665 278.5,322.5C 281.974,321.475 285.64,320.808 289.5,320.5 Z"/></g>
<g><path style="opacity:0.161" fill="#524f5c" d="M 220.5,325.5 C 222.027,325.427 223.027,326.094 223.5,327.5C 221.973,327.573 220.973,326.906 220.5,325.5 Z"/></g>
<g><path style="opacity:0.714" fill="#767181" d="M 230.5,330.5 C 233.877,330.959 237.211,331.626 240.5,332.5C 240.5,332.833 240.5,333.167 240.5,333.5C 236.838,333.277 233.505,332.277 230.5,330.5 Z"/></g>
<g><path style="opacity:0.004" fill="#413b4e" d="M 307.5,331.5 C 305.898,333.074 303.898,333.741 301.5,333.5C 303.214,332.262 305.214,331.595 307.5,331.5 Z"/></g>
<g><path style="opacity:0.157" fill="#655f6d" d="M 395.5,333.5 C 392.856,333.715 390.523,333.715 388.5,333.5C 390.833,332.167 393.167,332.167 395.5,333.5 Z"/></g>
<g><path style="opacity:0.855" fill="#9895a0" d="M 296.5,334.5 C 294.401,335.612 292.067,336.279 289.5,336.5C 289.611,335.883 289.944,335.383 290.5,335C 292.473,334.505 294.473,334.338 296.5,334.5 Z"/></g>
<g><path style="opacity:0.678" fill="#787285" d="M 401.5,335.5 C 403.027,335.427 404.027,336.094 404.5,337.5C 402.973,337.573 401.973,336.906 401.5,335.5 Z"/></g>
<g><path style="opacity:0.569" fill="#666170" d="M 253.5,336.5 C 256.385,336.194 259.052,336.527 261.5,337.5C 261.565,337.938 261.399,338.272 261,338.5C 258.393,337.877 255.893,337.21 253.5,336.5 Z"/></g>
<g><path style="opacity:0.562" fill="#8b8694" d="M 288.5,336.5 C 285.689,337.475 282.689,338.142 279.5,338.5C 279.5,348.833 279.5,359.167 279.5,369.5C 278.341,359.008 278.175,348.341 279,337.5C 282.057,336.549 285.223,336.216 288.5,336.5 Z"/></g>
<g><path style="opacity:0.004" fill="#393544" d="M 379.5,338.5 C 379.5,339.833 378.833,340.5 377.5,340.5C 377.833,339.5 378.5,338.833 379.5,338.5 Z"/></g>
<g><path style="opacity:0.851" fill="#7b7783" d="M 406.5,340.5 C 408.048,340.821 408.715,341.821 408.5,343.5C 407.599,342.71 406.932,341.71 406.5,340.5 Z"/></g>
<g><path style="opacity:0.212" fill="#524f60" d="M 377.5,341.5 C 377.573,343.027 376.906,344.027 375.5,344.5C 375.427,342.973 376.094,341.973 377.5,341.5 Z"/></g>
<g><path style="opacity:0.331" fill="#645e70" d="M 262.5,337.5 C 264.476,347.781 265.143,358.448 264.5,369.5C 263.5,369.5 262.5,369.5 261.5,369.5C 263.818,359.01 264.151,348.344 262.5,337.5 Z"/></g>
<g><path style="opacity:0.776" fill="#878391" d="M 361.5,339.5 C 360.167,347.167 360.167,354.833 361.5,362.5C 357.5,354.833 357.5,347.167 361.5,339.5 Z"/></g>
<g><path style="opacity:0.2" fill="#767180" d="M 408.5,343.5 C 409.117,343.611 409.617,343.944 410,344.5C 410.808,348.027 410.641,351.36 409.5,354.5C 409.677,350.766 409.344,347.099 408.5,343.5 Z"/></g>
<g><path style="opacity:0.459" fill="#656170" d="M 422.5,337.5 C 424.574,340.796 425.907,344.463 426.5,348.5C 426.5,350.167 426.5,351.833 426.5,353.5C 425.991,356.462 424.991,359.129 423.5,361.5C 425.005,353.411 424.672,345.411 422.5,337.5 Z"/></g>
<g><path style="opacity:0.773" fill="#837d8c" d="M 377.5,360.5 C 378.906,360.973 379.573,361.973 379.5,363.5C 378.094,363.027 377.427,362.027 377.5,360.5 Z"/></g>
<g><path style="opacity:0.176" fill="#454152" d="M 384.5,366.5 C 388.452,367.272 392.452,367.605 396.5,367.5C 395.036,368.16 393.369,368.493 391.5,368.5C 388.795,368.684 386.462,368.017 384.5,366.5 Z"/></g>
<g><path style="opacity:0.831" fill="#827f8b" d="M 273.5,383.5 C 275.698,383.12 277.365,383.787 278.5,385.5C 276.447,385.598 274.78,384.931 273.5,383.5 Z"/></g>
<g><path style="opacity:0.757" fill="#7b7782" d="M 241.5,394.5 C 243.027,394.427 244.027,395.094 244.5,396.5C 242.973,396.573 241.973,395.906 241.5,394.5 Z"/></g>
<g><path style="opacity:0.773" fill="#8f8b98" d="M 301.5,390.5 C 303.039,393.865 303.706,397.531 303.5,401.5C 303.706,405.469 303.039,409.135 301.5,412.5C 302.833,405.167 302.833,397.833 301.5,390.5 Z"/></g>
<g><path style="opacity:0.545" fill="#7a7784" d="M 286.5,409.5 C 286.573,411.027 285.906,412.027 284.5,412.5C 284.427,410.973 285.094,409.973 286.5,409.5 Z"/></g>
<g><path style="opacity:0.911" fill="#a39faa" d="M 245.5,414.5 C 245.5,417.167 245.5,419.833 245.5,422.5C 242.833,419.833 242.833,417.167 245.5,414.5 Z"/></g>
<g><path style="opacity:0.835" fill="#837f8e" d="M 260.5,415.5 C 261.71,415.932 262.71,416.599 263.5,417.5C 261.821,417.715 260.821,417.048 260.5,415.5 Z"/></g>
<g><path style="opacity:0.231" fill="#7b7785" d="M 277.5,417.5 C 277.389,418.117 277.056,418.617 276.5,419C 272.973,419.808 269.64,419.641 266.5,418.5C 270.234,418.677 273.901,418.344 277.5,417.5 Z"/></g>
<g><path style="opacity:0.537" fill="#817d8a" d="M 257.5,431.5 C 259.898,431.259 261.898,431.926 263.5,433.5C 261.102,433.741 259.102,433.074 257.5,431.5 Z"/></g>
<g><path style="opacity:0.078" fill="#4b4758" d="M 281.5,432.5 C 278.474,434.019 275.141,434.685 271.5,434.5C 268.975,434.497 266.641,434.163 264.5,433.5C 270.203,433.625 275.87,433.292 281.5,432.5 Z"/></g>
</svg>
