<?xml version="1.0" encoding="UTF-8"?>
<!DOCTYPE svg PUBLIC "-//W3C//DTD SVG 1.1//EN" "http://www.w3.org/Graphics/SVG/1.1/DTD/svg11.dtd">
<svg xmlns="http://www.w3.org/2000/svg" version="1.1" width="100px" height="100px" style="shape-rendering:geometricPrecision; text-rendering:geometricPrecision; image-rendering:optimizeQuality; fill-rule:evenodd; clip-rule:evenodd" xmlns:xlink="http://www.w3.org/1999/xlink">
<g><path style="opacity:0.979" fill="#a5a5a5" d="M 99.5,5.5 C 99.5,15.5 99.5,25.5 99.5,35.5C 98.7109,35.7828 98.0442,36.2828 97.5,37C 83.5,37.6667 69.5,37.6667 55.5,37C 55,36.5 54.5,36 54,35.5C 53.3333,25.5 53.3333,15.5 54,5.5C 54.5,5 55,4.5 55.5,4C 69.5,3.33333 83.5,3.33333 97.5,4C 98.0442,4.71719 98.7109,5.21719 99.5,5.5 Z M 59.5,7.5 C 70.8382,7.33348 82.1716,7.50014 93.5,8C 95.1554,9.44425 95.822,11.2776 95.5,13.5C 82.8333,13.5 70.1667,13.5 57.5,13.5C 57.2525,11.1417 57.9192,9.14166 59.5,7.5 Z M 57.5,19.5 C 70.1667,19.5 82.8333,19.5 95.5,19.5C 95.6655,23.5138 95.4988,27.5138 95,31.5C 94.5,32 94,32.5 93.5,33C 82.1667,33.6667 70.8333,33.6667 59.5,33C 59,32.5 58.5,32 58,31.5C 57.5012,27.5138 57.3345,23.5138 57.5,19.5 Z"/></g>
<g><path style="opacity:0.975" fill="#a5a5a5" d="M 11.5,15.5 C 24.1667,15.5 36.8333,15.5 49.5,15.5C 49.5,16.8333 49.5,18.1667 49.5,19.5C 38.1618,19.3335 26.8284,19.5001 15.5,20C 14.5838,20.3742 13.7504,20.8742 13,21.5C 11.8635,29.4014 11.3635,37.4014 11.5,45.5C 11.6667,52.8333 11.8333,60.1667 12,67.5C 12.3742,68.4162 12.8742,69.2496 13.5,70C 36.7453,71.6457 60.0786,71.9791 83.5,71C 85.3333,70.5 86.5,69.3333 87,67.5C 87.4998,58.8397 87.6664,50.1731 87.5,41.5C 88.8333,41.5 90.1667,41.5 91.5,41.5C 91.5,51.5 91.5,61.5 91.5,71.5C 93.5,71.5 95.5,71.5 97.5,71.5C 98.5715,76.589 96.9048,80.4224 92.5,83C 63.8333,83.6667 35.1667,83.6667 6.5,83C 2.09516,80.4224 0.42849,76.589 1.5,71.5C 3.5,71.5 5.5,71.5 7.5,71.5C 7.33339,54.1635 7.50006,36.8301 8,19.5C 8.68972,17.6498 9.85639,16.3164 11.5,15.5 Z M 7.5,75.5 C 35.5079,75.1669 63.5079,75.5002 91.5,76.5C 90.6195,77.9705 89.2861,78.8038 87.5,79C 62.1667,79.6667 36.8333,79.6667 11.5,79C 9.08981,78.9428 7.75648,77.7761 7.5,75.5 Z"/></g>
</svg>
