<?xml version="1.0" encoding="UTF-8"?>
<!DOCTYPE svg PUBLIC "-//W3C//DTD SVG 1.1//EN" "http://www.w3.org/Graphics/SVG/1.1/DTD/svg11.dtd">
<svg xmlns="http://www.w3.org/2000/svg" version="1.1" width="128px" height="128px" style="shape-rendering:geometricPrecision; text-rendering:geometricPrecision; image-rendering:optimizeQuality; fill-rule:evenodd; clip-rule:evenodd" xmlns:xlink="http://www.w3.org/1999/xlink">
<g><path style="opacity:0.948" fill="#a5a5a5" d="M 55.5,20.5 C 90.3072,19.8068 107.14,36.8068 106,71.5C 98.8639,96.9973 82.0306,108.497 55.5,106C 30.0027,98.8639 18.5027,82.0306 21,55.5C 25.3477,36.653 36.8477,24.9863 55.5,20.5 Z M 58.5,35.5 C 80.6418,35.4745 91.4751,46.4745 91,68.5C 85.3116,86.5961 73.1449,93.7628 54.5,90C 39.1872,82.8741 33.3538,71.0407 37,54.5C 40.9482,44.3775 48.1149,38.0441 58.5,35.5 Z"/></g>
<g><path style="opacity:0.892" fill="#a5a5a5" d="M 60.5,43.5 C 63.3646,43.0548 65.8646,43.7215 68,45.5C 69.3537,49.3628 69.8537,53.3628 69.5,57.5C 72.8499,57.335 76.1832,57.5017 79.5,58C 83.2127,59.6912 84.3794,62.5245 83,66.5C 82.0975,67.7014 80.9308,68.5348 79.5,69C 76.1832,69.4983 72.8499,69.665 69.5,69.5C 69.665,72.8499 69.4983,76.1832 69,79.5C 67.3088,83.2127 64.4755,84.3794 60.5,83C 59.2986,82.0975 58.4652,80.9308 58,79.5C 57.5017,76.1832 57.335,72.8499 57.5,69.5C 54.1501,69.665 50.8168,69.4983 47.5,69C 43.7873,67.3088 42.6206,64.4755 44,60.5C 44.9025,59.2986 46.0692,58.4652 47.5,58C 50.8168,57.5017 54.1501,57.335 57.5,57.5C 56.8026,52.3597 57.8026,47.693 60.5,43.5 Z"/></g>
</svg>
