<?xml version="1.0" encoding="UTF-8"?>
<!DOCTYPE svg PUBLIC "-//W3C//DTD SVG 1.1//EN" "http://www.w3.org/Graphics/SVG/1.1/DTD/svg11.dtd">
<svg xmlns="http://www.w3.org/2000/svg" version="1.1" width="96px" height="96px" style="shape-rendering:geometricPrecision; text-rendering:geometricPrecision; image-rendering:optimizeQuality; fill-rule:evenodd; clip-rule:evenodd" xmlns:xlink="http://www.w3.org/1999/xlink">
<g><path style="opacity:0.953" fill="#a6a6a6" d="M 38.5,7.5 C 61.3294,4.54685 77.1628,13.5469 86,34.5C 91.7177,58.8973 83.2177,76.064 60.5,86C 36.1027,91.7177 18.936,83.2177 9,60.5C 3.42409,33.977 13.2574,16.3104 38.5,7.5 Z M 42.5,19.5 C 55.3202,18.1527 60.8202,23.8194 59,36.5C 55.3449,43.0702 49.8449,45.2368 42.5,43C 35.9298,39.3449 33.7632,33.8449 36,26.5C 37.6941,23.6424 39.8607,21.309 42.5,19.5 Z M 39.5,56.5 C 50.0998,55.2829 60.0998,57.1163 69.5,62C 73.1804,65.0937 72.8471,68.0937 68.5,71C 60.0446,78.06 50.3779,80.3933 39.5,78C 17.3521,69.6142 17.3521,62.4476 39.5,56.5 Z"/></g>
</svg>
