<?xml version="1.0" encoding="UTF-8"?>
<!DOCTYPE svg PUBLIC "-//W3C//DTD SVG 1.1//EN" "http://www.w3.org/Graphics/SVG/1.1/DTD/svg11.dtd">
<svg xmlns="http://www.w3.org/2000/svg" version="1.1" width="64px" height="64px" style="shape-rendering:geometricPrecision; text-rendering:geometricPrecision; image-rendering:optimizeQuality; fill-rule:evenodd; clip-rule:evenodd" xmlns:xlink="http://www.w3.org/1999/xlink">
<g><path style="opacity:0.957" fill="#a6a6a6" d="M 5.5,7.5 C 22.8365,7.33339 40.1699,7.50006 57.5,8C 58,8.5 58.5,9 59,9.5C 59.6667,13.5 59.6667,17.5 59,21.5C 56.8646,23.2785 54.3646,23.9452 51.5,23.5C 51.6665,33.8387 51.4998,44.172 51,54.5C 44.5774,55.1574 38.0774,55.4907 31.5,55.5C 24.9226,55.4907 18.4226,55.1574 12,54.5C 11.5002,44.172 11.3335,33.8387 11.5,23.5C 8.63544,23.9452 6.13544,23.2785 4,21.5C 2.96558,16.5431 3.46558,11.8764 5.5,7.5 Z M 9.5,11.5 C 24.1705,11.3334 38.8371,11.5001 53.5,12C 56.3178,14.9005 55.9845,17.4005 52.5,19.5C 51.5713,18.3112 51.238,16.9778 51.5,15.5C 38.1667,15.5 24.8333,15.5 11.5,15.5C 11.7192,19.5274 10.5525,20.1941 8,17.5C 7.25164,15.1599 7.75164,13.1599 9.5,11.5 Z M 15.5,19.5 C 26.1667,19.5 36.8333,19.5 47.5,19.5C 47.5,26.8333 47.5,34.1667 47.5,41.5C 41.8333,42.5 38.5,45.8333 37.5,51.5C 33.5,51.5 29.5,51.5 25.5,51.5C 24.5,45.8333 21.1667,42.5 15.5,41.5C 15.5,34.1667 15.5,26.8333 15.5,19.5 Z M 29.5,28.5 C 34.1585,28.0146 35.4919,29.848 33.5,34C 28.7282,34.8104 27.3948,32.9771 29.5,28.5 Z M 15.5,46.5 C 21.3318,49.6029 21.3318,51.2696 15.5,51.5C 15.5,49.8333 15.5,48.1667 15.5,46.5 Z M 46.5,46.5 C 47.4511,47.9187 47.7845,49.5853 47.5,51.5C 41.7656,51.7515 41.4323,50.0848 46.5,46.5 Z"/></g>
<g><path style="opacity:0.853" fill="#a5a5a5" d="M 27.5,23.5 C 38.8598,22.71 42.1931,27.5434 37.5,38C 26.9641,41.997 22.4641,38.497 24,27.5C 24.6897,25.6498 25.8564,24.3164 27.5,23.5 Z M 29.5,28.5 C 27.3948,32.9771 28.7282,34.8104 33.5,34C 35.4919,29.848 34.1585,28.0146 29.5,28.5 Z"/></g>
</svg>
